<svg xmlns="http://www.w3.org/2000/svg" viewBox="0 0 384 432"><title>building</title><path d="M593,299V576c-.4,1.1-.8,2.1-1.1,3.2-2.8,11.9-8.7,22.1-19.2,28.6-6.6,4.1-14.4,6.2-21.7,9.2H250c-1.2-.4-2.4-.9-3.7-1.2q-25.8-6.7-34.9-31.8c-.9-2.6-1.6-5.3-2.4-8V445l1.2-4.3c5.2-19.7,17.7-32.3,37.6-36.5,30.6-6.5,61.3-12.3,92-18.4l29.2-6v-4.5c0-33.9-.1-67.7,0-101.5.2-30.1,27.2-52.8,56.6-46.8,22.5,4.6,44.6,10.9,66.9,16.4l20.5,5c0-14.8.4-28.8-.1-42.8-.4-9.8,2.9-16.7,12.1-20.6h8c9.1,3.9,12.5,10.8,12.1,20.6-.5,12.3-.1,24.7-.1,37v13.9l10.6,2.6q25.9,6.8,35,31.9C591.5,293.6,592.2,296.3,593,299ZM497,585h45.6c12.2,0,18.4-6.2,18.4-18.5v-258c0-10.7-4-16-14.3-18.6l-123-30.7c-14.1-3.6-22.7,3.2-22.7,17.8V584.6h64V522.3c0-10.2,6.8-17.3,16.1-17.3s15.8,7.3,15.9,17.5V585ZM368.9,412.7l-4.9.9L256.9,435c-11.4,2.2-15.9,7.5-15.9,19.2v112c0,12.6,6.1,18.8,18.6,18.8H368.9Z" transform="translate(-209 -185)"/><path d="M449,297c15.4,0,16,.6,16,16s-.7,16-16,16-16-.6-16-16S433.6,297,449,297Z" transform="translate(-209 -185)"/><path d="M465,361.4c0,14.9-.7,15.6-15.9,15.6s-16.1-.5-16.1-16.4.7-15.6,15.9-15.6S465,345.5,465,361.4Z" transform="translate(-209 -185)"/><path d="M513,361.2c0,15.1-.7,15.8-15.7,15.8s-16.3-.5-16.3-16.2.7-15.8,15.7-15.8S513,345.5,513,361.2Z" transform="translate(-209 -185)"/><path d="M513,409.1c0,15.2-.7,15.9-15.6,15.9s-16.4-.5-16.4-16.1.7-15.9,15.6-15.9S513,393.5,513,409.1Z" transform="translate(-209 -185)"/><path d="M289.2,457c15.1,0,15.8.7,15.8,15.7s-.5,16.3-16.2,16.3-15.8-.7-15.8-15.7S273.5,457,289.2,457Z" transform="translate(-209 -185)"/></svg>