<?xml version="1.0" standalone="no"?>
<!DOCTYPE svg PUBLIC "-//W3C//DTD SVG 20010904//EN"
 "http://www.w3.org/TR/2001/REC-SVG-20010904/DTD/svg10.dtd">
<svg version="1.0" xmlns="http://www.w3.org/2000/svg"
 width="516.000000pt" height="404.000000pt" viewBox="0 0 516.000000 404.000000"
 preserveAspectRatio="xMidYMid meet">

<g transform="translate(0.000000,404.000000) scale(0.100000,-0.100000)"
fill="#000000" stroke="none">
<path d="M2295 4020 c-138 -17 -272 -42 -402 -76 -652 -168 -1237 -609 -1667
-1258 -98 -148 -159 -276 -193 -403 -24 -87 -27 -116 -27 -263 0 -147 3 -176
27 -263 47 -177 161 -379 348 -619 352 -453 761 -767 1244 -956 322 -126 641
-178 1025 -169 250 6 363 20 580 73 188 46 330 98 515 189 462 227 868 596
1189 1079 98 148 159 276 193 403 24 87 27 116 27 263 0 147 -3 176 -27 263
-34 127 -95 255 -193 403 -328 495 -744 869 -1217 1094 -226 108 -479 185
-737 226 -121 19 -571 28 -685 14z m456 -461 c453 -36 855 -199 1224 -496 193
-156 417 -405 568 -633 115 -173 147 -263 147 -410 0 -149 -31 -234 -146 -408
-311 -466 -718 -811 -1169 -990 -429 -170 -932 -195 -1385 -68 -532 148 -1015
520 -1374 1058 -115 174 -146 259 -146 408 0 149 31 234 146 408 395 593 934
978 1534 1096 215 42 386 52 601 35z"/>
<path d="M2458 3100 c-790 -100 -1213 -962 -806 -1644 91 -153 247 -301 409
-390 295 -162 667 -173 977 -30 208 95 389 267 500 474 141 262 166 593 65
875 -107 298 -344 539 -638 650 -149 57 -360 84 -507 65z m322 -495 c183 -67
316 -198 385 -385 25 -66 29 -89 29 -195 0 -85 -4 -135 -16 -171 -92 -288
-344 -467 -633 -451 -250 15 -460 174 -551 417 -24 66 -28 89 -28 195 0 85 4
135 16 171 56 176 175 316 332 391 53 26 82 36 171 57 11 3 65 3 120 1 77 -2
117 -9 175 -30z"/>
</g>
</svg>
