<svg xmlns="http://www.w3.org/2000/svg" viewBox="0 0 512 494.3"><title>like</title><path d="M145,389c2.5-7.2,3.9-14.9,7.6-21.5,9.8-17.7,25.3-28.1,45.7-29.7a257.2,257.2,0,0,1,34-.3c33.8,2.2,56.4,26.8,56.4,61.1q.2,85.2,0,170.4c0,13.4,4.1,24.5,14.7,32.9a38,38,0,0,0,24.2,8.1H540.5a84.9,84.9,0,0,0,18.8-2.4c17.5-4.3,27.8-15.9,30.6-33.5q14.6-90.3,28.8-180.5c2.4-14.9-9.8-33.5-25.8-38.6a55.6,55.6,0,0,0-17.1-2.7c-42.4-.2-84.7-.1-127-.1h-6.4v-6.4c-.1-36.2.1-72.4-.4-108.5-.1-7.7-1.9-15.6-4.2-23-4.4-13.6-14.8-20.4-28.7-22-4.3-.4-8.7,0-13.7,0,0,2,.1,4,0,5.9-.1,23.7.1,47.4-.5,71s-8.7,42.5-23.1,59.4c-9.1,10.6-20,19.9-30.7,29.1-8.9,7.5-21,5.8-27.5-2.8s-4.5-19.6,4.1-27.1,17-14.2,24.1-22.4c10.9-12.6,15.7-27.8,15.5-44.7-.2-30.2-.1-60.3,0-90.5,0-9.3-1.5-7,7.5-10,19.1-6.4,38.8-8.5,58.5-3.7,28.3,6.9,45.7,25.3,52.6,53.1,2.9,11.8,3.8,24.3,4.1,36.6.7,20.6.2,41.3.2,62V314l6.2.2h90c30.6.1,54.5,12.8,70,39.3,4.6,7.9,6.4,17.4,9.5,26.1.5,1.4.7,2.9,1.1,4.3v13a6.5,6.5,0,0,0-.8,1.7c-9.4,58.9-18.9,117.7-28.1,176.6-3.5,22-11.8,41.2-30,55.1S560.3,648,538.9,648q-106.2.2-212.5,0c-42.6-.2-75.7-34-75.7-76.7,0-57.5.1-114.9,0-172.4,0-15.4-8.2-23.5-23.4-23.6-6.7-.1-13.3,0-20,0-16.4,0-24.3,7.9-24.3,24.1V571.9c0,16.7,5.6,23.1,22.1,25.3,10.8,1.4,17.8,9.8,17.1,20.3S213.4,635,202.8,635c-25.7.1-49.3-18.3-55.8-43.4-.6-2.5-1.3-5.1-2-7.6Z" transform="translate(-145 -153.8)"/></svg>