<svg width="16" height="16" viewBox="0 0 16 16" fill="none" xmlns="http://www.w3.org/2000/svg">
<path d="M16 2V11.375C16 12.8258 14.7317 14 13.1646 14C11.6203 14 10.3672 12.8586 10.3292 11.4383L1.02321 13.7867C0.591571 13.8945 0.14626 13.6602 0.0286913 13.2594C-0.0889276 12.8609 0.165753 12.4484 0.597394 12.3383L8.70895 10.2922V3.5C8.70895 2.67148 9.43552 2 10.3292 2H16ZM13.1646 10.25C12.4937 10.25 11.9494 10.7539 11.9494 11.375C11.9494 11.9961 12.4937 12.5 13.1646 12.5C13.8355 12.5 14.3798 11.9961 14.3798 11.375C14.3798 10.7539 13.8355 10.25 13.1646 10.25ZM0.382713 6.86797C0.267018 6.46719 0.52347 6.05703 0.955617 5.94922L2.12927 5.65859L2.65332 7.47031C2.71155 7.66953 2.93433 7.76797 3.14952 7.73516L3.93179 7.54062C4.14697 7.48672 4.27609 7.28047 4.21786 7.08125L3.69381 5.26953L4.86848 4.97891C5.30139 4.87109 5.74442 5.11016 5.86088 5.50859L6.90897 9.13203C7.02542 9.53281 6.7672 9.94297 6.33682 10.0508L2.42294 11.0211C1.99105 11.1289 1.547 10.8898 1.43105 10.4914L0.382713 6.86797Z" fill="#5A400C" fill-opacity="0.72"/>
</svg>
