<svg width="24" height="24" viewBox="0 0 24 24" fill="none" xmlns="http://www.w3.org/2000/svg">
<g clip-path="url(#clip0_1100_37085)">
<g clip-path="url(#clip1_1100_37085)">
<path d="M15.1648 5.62159C15.2816 5.62171 15.3971 5.64489 15.5049 5.68978C15.6127 5.73468 15.7106 5.80041 15.7929 5.88321L22.3782 12.3852L15.801 19.0462C15.7187 19.1317 15.6199 19.1997 15.5107 19.2461C15.4015 19.2925 15.284 19.3165 15.1653 19.3165C15.0463 19.3175 14.9282 19.2949 14.818 19.25C14.7077 19.2052 14.6074 19.1389 14.5229 19.0551C14.4384 18.9713 14.3713 18.8715 14.3255 18.7616C14.2797 18.6518 14.2562 18.5339 14.2562 18.4149V15.0928C14.2562 15.0928 13.1021 14.516 11.1508 14.516C8.87356 14.516 5.50984 15.3009 1.62181 18.7024C1.62181 18.7024 3.42664 9.67827 14.2562 9.67827V6.5259C14.2558 6.40668 14.2791 6.28857 14.3247 6.17841C14.3703 6.06825 14.4372 5.96822 14.5218 5.88412C14.6063 5.80002 14.7066 5.73351 14.817 5.68845C14.9274 5.64339 15.0456 5.62066 15.1648 5.62159ZM15.1648 4C14.5203 3.99934 13.8998 4.24445 13.4297 4.68539C13.1768 4.92043 12.9756 5.20545 12.8387 5.52238C12.7018 5.83931 12.6323 6.18122 12.6346 6.52644V8.12262C10.5551 8.29397 8.66113 8.80153 6.98819 9.63611C5.28816 10.4826 3.79381 11.6906 2.6099 13.1755C0.583448 15.7122 0.0542688 18.2765 0.0315665 18.3846C-0.0349752 18.7169 0.00426679 19.0617 0.143779 19.3705C0.283292 19.6794 0.516062 19.9368 0.809386 20.1065C1.10271 20.2763 1.44184 20.3498 1.77914 20.3169C2.11643 20.284 2.43494 20.1462 2.68989 19.9229C6.2655 16.7938 9.26436 16.1392 11.1508 16.1392C11.649 16.1376 12.1461 16.1859 12.6346 16.2836V18.4149C12.6329 18.7596 12.7028 19.1008 12.8397 19.4172C12.9767 19.7335 13.1778 20.018 13.4302 20.2527C13.9008 20.6927 14.5211 20.9372 15.1653 20.9364C15.4987 20.9367 15.8287 20.8703 16.136 20.7411C16.4433 20.6119 16.7216 20.4225 16.9545 20.184L23.5322 13.5247C23.6819 13.3731 23.8002 13.1936 23.8804 12.9963C23.9607 12.7991 24.0013 12.5879 24 12.3749C23.9986 12.162 23.9553 11.9513 23.8726 11.7551C23.7898 11.5588 23.6692 11.3808 23.5176 11.2312L16.9318 4.72972C16.4627 4.26208 15.8272 3.99965 15.1648 4V4Z" fill="#3E4959"/>
</g>
</g>
<defs>
<clipPath id="clip0_1100_37085">
<rect width="24" height="24" fill="white"/>
</clipPath>
<clipPath id="clip1_1100_37085">
<rect width="24" height="24" fill="white"/>
</clipPath>
</defs>
</svg>
