<svg xmlns="http://www.w3.org/2000/svg" viewBox="0 0 225.6 496.9"><title>triple_arrow</title><path d="M356.5,137.2a16.2,16.2,0,0,0,10.9-8.9c1.1-2.2,1.3-3.2,1.3-6.4.1-7,4.3-2.2-51.8-59.9C283,27.2,266.3,10.3,265,9.6a15.2,15.2,0,0,0-10.3-1.8,20.8,20.8,0,0,0-4.8,1.6c-1.4.7-18.5,17.1-53.3,51-57.6,56.2-53.3,51.5-53.4,58.6,0,3.1.1,4.1,1.2,6.5a16,16,0,0,0,21.5,7.8c1.2-.6,17.4-16,46.4-44.2L257,45.6l43.4,44.6c28.4,29.1,44.1,44.9,45.2,45.5A17.4,17.4,0,0,0,356.5,137.2Z" transform="translate(-143.2 -7.5)"/><path d="M356.5,320.7a16.4,16.4,0,0,0,10.9-8.9c1.1-2.2,1.3-3.2,1.3-6.4.1-7.1,4.3-2.2-51.8-59.9C283,210.7,266.3,193.8,265,193a15.7,15.7,0,0,0-10.3-1.7,27.2,27.2,0,0,0-4.8,1.5c-1.4.8-18.5,17.2-53.3,51.1-57.6,56.2-53.3,51.5-53.4,58.5,0,3.2.1,4.2,1.2,6.5a16,16,0,0,0,21.5,7.9c1.2-.6,17.4-16,46.4-44.3L257,229.1l43.4,44.6c28.4,29.1,44.1,44.9,45.2,45.4A17.5,17.5,0,0,0,356.5,320.7Z" transform="translate(-143.2 -7.5)"/><path d="M356.5,504.1a16.3,16.3,0,0,0,10.9-8.8c1.1-2.3,1.3-3.2,1.3-6.4.1-7.1,4.3-2.3-51.8-60-33.9-34.8-50.6-51.6-51.9-52.4a15.7,15.7,0,0,0-10.3-1.8,27,27,0,0,0-4.8,1.6c-1.4.7-18.5,17.2-53.3,51.1-57.6,56.1-53.3,51.4-53.4,58.5,0,3.2.1,4.2,1.2,6.5a15.8,15.8,0,0,0,21.5,7.8c1.2-.5,17.4-16,46.4-44.2L257,412.6l43.4,44.6c28.4,29.1,44.1,44.8,45.2,45.4A16.7,16.7,0,0,0,356.5,504.1Z" transform="translate(-143.2 -7.5)"/></svg>