<svg width="24" height="24" fill="none" xmlns="http://www.w3.org/2000/svg"><path d="M11.712 1.48c-.26.046-.651.263-.82.457-.188.215-.232.314-1.434 3.203a473.6 473.6 0 0 1-1.041 2.493 173.1 173.1 0 0 1-2.984.415c-1.998.27-3.042.428-3.184.481-.301.111-.646.442-.793.76-.102.221-.116.297-.116.632 0 .349.011.402.132.648.088.18.202.33.348.459.118.106 1.179.975 2.355 1.932 1.222.994 2.141 1.769 2.143 1.806.001.037-.322 1.468-.718 3.18-.478 2.067-.72 3.188-.72 3.337 0 1.049 1.139 1.785 2.086 1.348.167-.077 1.103-.715 2.547-1.735a2.61 2.61 0 0 0-.106-.382 11.742 11.742 0 0 1-.208-.764 3.354 3.354 0 0 0-.102-.39c-.008 0-.613.421-1.345.936-.733.515-1.337.922-1.344.905-.006-.018.313-1.435.71-3.151.469-2.025.722-3.196.722-3.338 0-.271-.115-.617-.285-.853-.081-.112-.974-.868-2.421-2.049-2.148-1.751-2.286-1.872-2.184-1.9.061-.017 1.384-.202 2.942-.412 1.95-.262 2.899-.406 3.046-.461.282-.105.511-.275.675-.501.082-.113.566-1.22 1.249-2.86C11.476 4.204 11.988 3 12 3c.012 0 .524 1.204 1.138 2.676.683 1.64 1.167 2.747 1.249 2.86.164.226.393.396.675.501.147.055 1.096.199 3.046.461 1.558.21 2.882.395 2.942.412.107.029.097.041-.33.387-.242.196-.44.368-.44.381 0 .014.139.093.308.177.17.084.478.259.685.389l.376.237.34-.287c.536-.451.715-.804.683-1.349a1.41 1.41 0 0 0-.477-1.023 1.488 1.488 0 0 0-.444-.293c-.142-.053-1.186-.211-3.184-.481a173.1 173.1 0 0 1-2.984-.415 473.6 473.6 0 0 1-1.041-2.493c-1.206-2.899-1.246-2.987-1.439-3.209-.297-.34-.903-.537-1.391-.451m1.012 11.825a.992.992 0 0 0-.486.561c-.103.311-.072.349 1.896 2.324L15.938 18l-1.804 1.81c-2.027 2.034-2.012 2.015-1.874 2.375.09.237.318.465.555.555.36.138.341.153 2.375-1.874L17 19.062l1.81 1.804c2.034 2.027 2.015 2.012 2.375 1.874.237-.09.465-.318.555-.555.138-.36.153-.341-1.874-2.375L18.062 18l1.804-1.81c2.027-2.034 2.012-2.015 1.874-2.375a1.027 1.027 0 0 0-.555-.555c-.36-.138-.341-.153-2.375 1.874L17 16.938l-1.79-1.787c-1.764-1.761-1.975-1.947-2.212-1.95a1.048 1.048 0 0 0-.274.104" fill="#3E4959" fill-rule="evenodd"/></svg>