<?xml version="1.0" standalone="no"?>
<!DOCTYPE svg PUBLIC "-//W3C//DTD SVG 20010904//EN"
 "http://www.w3.org/TR/2001/REC-SVG-20010904/DTD/svg10.dtd">
<svg version="1.0" xmlns="http://www.w3.org/2000/svg"
 width="256.000000pt" height="256.000000pt" viewBox="0 0 256.000000 256.000000"
 preserveAspectRatio="xMidYMid meet">
<metadata>
Created by potrace 1.14, written by Peter Selinger 2001-2017
</metadata>
<g transform="translate(0.000000,256.000000) scale(0.100000,-0.100000)"
fill="#000000" stroke="none">
<path d="M1038 2511 c44 -55 86 -137 97 -188 3 -18 12 -36 18 -40 7 -4 63 -7
125 -8 154 0 151 3 149 -185 -2 -120 0 -140 13 -141 8 -1 44 -2 80 -3 80 -2
107 -11 116 -38 5 -18 8 -148 5 -245 -1 -33 -36 -47 -121 -49 -41 -1 -79 -3
-85 -3 -6 -1 -10 -30 -10 -68 l1 -68 50 -1 c60 -1 90 -16 96 -46 2 -13 3 -61
3 -107 -3 -113 -8 -116 -185 -112 -60 1 -80 25 -80 95 l0 53 -70 -1 -70 -1 0
-96 0 -96 136 -1 c185 0 174 13 174 -212 0 -225 11 -212 -175 -212 l-136 -1 3
-61 3 -61 52 0 c81 0 93 -17 93 -132 0 -126 -7 -133 -133 -133 -114 0 -129 11
-131 92 l-2 53 -61 3 -62 3 0 -113 c0 -279 3 -270 -86 -275 -32 -2 -61 -5 -63
-8 -3 -3 7 -18 22 -34 36 -37 109 -60 217 -68 l87 -6 42 82 c24 45 56 96 73
112 61 62 161 93 277 88 269 -11 334 14 333 129 0 31 -2 69 -6 83 -4 19 5 48
30 98 31 63 34 75 24 98 -6 14 -10 26 -9 27 46 19 59 51 34 88 -26 40 -29 85
-6 108 11 11 27 21 35 21 8 1 18 2 23 3 4 1 24 5 45 9 49 10 72 44 62 94 -3
20 -42 104 -85 188 -76 146 -96 202 -92 255 8 131 9 224 0 270 -5 30 -11 65
-13 77 -6 42 -48 158 -81 225 -138 282 -413 473 -722 503 l-74 7 40 -51z"/>
<path d="M1061 2203 c-19 -16 -22 -28 -22 -118 -2 -208 -13 -195 166 -195 171
0 165 -6 165 172 0 162 4 158 -166 158 -101 0 -125 -3 -143 -17z"/>
<path d="M1389 1869 c-15 -15 -19 -33 -19 -87 0 -99 12 -112 103 -112 101 1
112 11 112 105 -1 100 -12 112 -106 113 -57 0 -75 -4 -90 -19z"/>
<path d="M514 1705 c-20 -20 -22 -33 -22 -133 0 -157 -1 -157 157 -157 154 1
152 -1 153 131 0 133 0 137 -16 159 -12 16 -28 19 -132 20 -109 1 -121 -1
-140 -20z"/>
<path d="M1130 1650 c-17 -17 -19 -31 -17 -111 3 -118 11 -125 123 -123 103 2
100 2 118 20 12 12 16 37 16 108 0 122 -4 126 -128 126 -79 0 -95 -3 -112 -20z"/>
<path d="M821 1395 c-16 -17 -18 -36 -17 -137 1 -155 -2 -152 156 -152 157 0
153 -5 152 155 -1 96 -4 125 -16 137 -12 12 -42 16 -136 17 -109 1 -122 -1
-139 -20z"/>
<path d="M1410 1412 c-8 -2 -21 -11 -27 -20 -14 -17 -17 -80 -5 -98 23 -35 97
-37 125 -3 29 35 19 104 -17 116 -27 9 -57 11 -76 5z"/>
<path d="M1130 1083 c-16 -20 -18 -40 -17 -139 3 -151 1 -150 160 -149 154 1
151 -3 150 156 -1 158 4 153 -154 154 -115 1 -122 0 -139 -22z"/>
<path d="M702 974 c-19 -13 -22 -24 -22 -78 0 -87 17 -104 100 -100 77 3 91
15 92 80 1 73 -1 81 -18 98 -21 22 -122 22 -152 0z"/>
<path d="M895 776 c-19 -19 -21 -32 -20 -104 2 -108 9 -115 109 -115 125 2
127 4 127 126 0 104 -5 109 -112 112 -73 1 -86 -1 -104 -19z"/>
<path d="M524 550 c-12 -5 -25 -14 -29 -20 -3 -6 -6 -81 -6 -167 1 -130 4
-160 18 -175 14 -16 34 -18 172 -18 123 1 160 4 176 16 18 13 20 27 20 174 0
139 -3 162 -18 177 -15 15 -39 18 -165 19 -81 1 -157 -2 -168 -6z"/>
<path d="M1128 536 c-22 -24 -23 -74 -2 -104 12 -17 25 -22 59 -22 56 0 75 19
75 75 0 36 -5 48 -24 60 -30 20 -85 16 -108 -9z"/>
</g>
</svg>
